<?xml version="1.0" encoding="UTF-8" standalone="no"?>
<!-- Created with Inkscape (http://www.inkscape.org/) -->

<svg
   xmlns:dc="http://purl.org/dc/elements/1.1/"
   xmlns:cc="http://creativecommons.org/ns#"
   xmlns:rdf="http://www.w3.org/1999/02/22-rdf-syntax-ns#"
   xmlns:svg="http://www.w3.org/2000/svg"
   xmlns="http://www.w3.org/2000/svg"
   xmlns:sodipodi="http://sodipodi.sourceforge.net/DTD/sodipodi-0.dtd"
   xmlns:inkscape="http://www.inkscape.org/namespaces/inkscape"
   id="svg2"
   sodipodi:docname="clear.svg"
   height="48"
   sodipodi:version="0.32"
   width="48"
   version="1.0"
   inkscape:version="0.48.4 r9939"
   inkscape:export-filename="/home/matt/Projets/pharmaship/templates/style/icons/clear.png"
   inkscape:export-xdpi="45"
   inkscape:export-ydpi="45">
  <defs
     id="defs10" />
  <sodipodi:namedview
     id="base"
     bordercolor="#666666"
     pagecolor="#ffffff"
     showgrid="true"
     borderopacity="1.0"
     showguides="true"
     inkscape:zoom="6.9532167"
     inkscape:cx="-24.43436"
     inkscape:cy="23.940428"
     inkscape:window-width="1920"
     inkscape:window-height="1024"
     inkscape:window-x="0"
     inkscape:window-y="27"
     inkscape:window-maximized="1"
     inkscape:current-layer="svg2" />
  <metadata
     id="metadata7">
    <rdf:RDF>
      <cc:Work
         rdf:about="">
        <dc:format>image/svg+xml</dc:format>
        <dc:type
           rdf:resource="http://purl.org/dc/dcmitype/StillImage" />
        <dc:title></dc:title>
      </cc:Work>
    </rdf:RDF>
  </metadata>
  <path
     style="fill:#ffffff;stroke:none;fill-opacity:1;opacity:0.5"
     d="M 24 4 C 12.954305 4 4 12.954305 4 24 C 4 35.045695 12.954305 44 24 44 C 35.045695 44 44 35.045695 44 24 C 44 12.954305 35.045695 4 24 4 z M 15.875 13.1875 A 3.0003 3.0003 0 0 1 16.1875 13.1875 A 3.0003 3.0003 0 0 1 18.34375 14.09375 L 24 19.75 L 29.65625 14.09375 A 3.0003 3.0003 0 0 1 31.71875 13.1875 A 3.0003 3.0003 0 0 1 33.90625 18.34375 L 28.25 24 L 33.90625 29.65625 A 3.0052038 3.0052038 0 1 1 29.65625 33.90625 L 24 28.25 L 18.34375 33.90625 A 3.0052038 3.0052038 0 0 1 14.09375 29.65625 L 19.75 24 L 14.09375 18.34375 A 3.0003 3.0003 0 0 1 15.875 13.1875 z "
     id="path6" />
</svg>
