<?xml version="1.0" encoding="UTF-8" standalone="no"?>
<!-- Generator: Adobe Illustrator 9.0, SVG Export Plug-In  -->

<svg
   xmlns:dc="http://purl.org/dc/elements/1.1/"
   xmlns:cc="http://creativecommons.org/ns#"
   xmlns:rdf="http://www.w3.org/1999/02/22-rdf-syntax-ns#"
   xmlns:svg="http://www.w3.org/2000/svg"
   xmlns="http://www.w3.org/2000/svg"
   xmlns:sodipodi="http://sodipodi.sourceforge.net/DTD/sodipodi-0.dtd"
   xmlns:inkscape="http://www.inkscape.org/namespaces/inkscape"
   id="svg2"
   sodipodi:docname="print.svg"
   xml:space="preserve"
   height="40"
   sodipodi:version="0.32"
   width="40"
   version="1.0"
   viewBox="0 0 40 40"
   inkscape:version="0.48.4 r9939"
   inkscape:export-filename="/home/matt/Projets/pharmaship/templates/style/icons/print.png"
   inkscape:export-xdpi="41.25"
   inkscape:export-ydpi="41.25"><defs
     id="defs17" /><metadata
     id="metadata31"><rdf:RDF><cc:Work
         rdf:about=""><dc:format>image/svg+xml</dc:format><dc:type
           rdf:resource="http://purl.org/dc/dcmitype/StillImage" /><dc:title></dc:title></cc:Work></rdf:RDF></metadata><sodipodi:namedview
     id="base"
     bordercolor="#666666"
     pagecolor="#ffffff"
     borderopacity="1.0"
     showgrid="true"
     inkscape:zoom="4.9166667"
     inkscape:cx="33.974481"
     inkscape:cy="3.4067721"
     inkscape:window-width="1920"
     inkscape:window-height="1027"
     inkscape:window-x="0"
     inkscape:window-y="25"
     inkscape:window-maximized="1"
     inkscape:current-layer="svg2" /><rect
     id="rect3981"
     style="fill:none"
     rx="0"
     ry="0"
     height="48"
     width="48"
     y="-4"
     x="0" /><g
     id="g2994"
     transform="translate(-0.3389831,-0.2881356)"><g
       transform="translate(-3.6610169,-2.7118644)"
       style="fill:#2e3436;stroke:none"
       id="g3100"><path
         inkscape:connector-curvature="0"
         d="m 41,42 c 0,0.4 -0.6,1 -1,1 H 8 C 7.6,43 7,42.4 7,42 v -2 c 0,-0.4 0.5,-0.7 0.9,-0.7 h 31.9 c 0.4,0 1.2,0.3 1.2,0.7 v 2 z"
         style="fill:#2e3436;stroke:none"
         sodipodi:nodetypes="ccccccccc"
         id="path3102" /><path
         inkscape:connector-curvature="0"
         d="m 44,39 c 0,0.4 -0.6,1 -1,1 H 5 C 4.6,40 4,39.4 4,39 V 25 c 0,-0.4 0.6,-1 1,-1 h 38 c 0.4,0 1,0.6 1,1 v 14 z"
         style="fill:#2e3436;stroke:none"
         sodipodi:nodetypes="ccccccccc"
         id="path3104" /><path
         inkscape:connector-curvature="0"
         d="M 12,4 C 9,4 8,6 8,8 V 26 H 40 V 8 C 40,6 39,4 36,4 H 12 z"
         style="fill:#2e3436;stroke:none"
         sodipodi:nodetypes="ccccccc"
         id="path3106" /></g><g
       transform="translate(-3.6610169,-2.7118644)"
       style="fill:#2e3436"
       id="g3095"><path
         inkscape:connector-curvature="0"
         style="fill:#2e3436"
         d="m 41,42 c 0,0.4 -0.6,1 -1,1 H 8 C 7.6,43 7,42.4 7,42 v -2 c 0,-0.4 0.5,-0.7 0.9,-0.7 h 31.9 c 0.4,0 1.2,0.3 1.2,0.7 v 2 z"
         sodipodi:nodetypes="ccccccccc"
         id="path13" /><path
         inkscape:connector-curvature="0"
         style="fill:#2e3436"
         d="m 44,39 c 0,0.4 -0.6,1 -1,1 H 5 C 4.6,40 4,39.4 4,39 V 25 c 0,-0.4 0.6,-1 1,-1 h 38 c 0.4,0 1,0.6 1,1 v 14 z"
         sodipodi:nodetypes="ccccccccc"
         id="path15" /><path
         inkscape:connector-curvature="0"
         style="fill:#2e3436"
         d="M 12,4 C 9,4 8,6 8,8 V 26 H 40 V 8 C 40,6 39,4 36,4 H 12 z"
         sodipodi:nodetypes="ccccccc"
         id="path17" /></g><path
       inkscape:connector-curvature="0"
       d="M 32.338983,24.288136 H 8.3389831 V 6.2881356 c 0,0 0,-1 1,-1 H 31.338983 c 1,0 1,1 1,1 V 24.288136 z"
       style="fill:#eeeeec"
       sodipodi:nodetypes="ccccccc"
       id="path19" /><path
       inkscape:connector-curvature="0"
       d="m 12.938983,18.288136 h 14.4"
       style="fill:#2e3436;stroke:#a40000;stroke-width:4"
       sodipodi:nodetypes="cc"
       id="path21" /><path
       inkscape:connector-curvature="0"
       d="m 12.877983,11.288136 h 14.461"
       style="fill:#a40000;stroke:#a40000;stroke-width:4"
       sodipodi:nodetypes="cc"
       id="path23" /></g></svg>