<?xml version="1.0" encoding="UTF-8" standalone="no"?>
<!-- Created with Inkscape (http://www.inkscape.org/) -->

<svg
   xmlns:dc="http://purl.org/dc/elements/1.1/"
   xmlns:cc="http://creativecommons.org/ns#"
   xmlns:rdf="http://www.w3.org/1999/02/22-rdf-syntax-ns#"
   xmlns:svg="http://www.w3.org/2000/svg"
   xmlns="http://www.w3.org/2000/svg"
   xmlns:sodipodi="http://sodipodi.sourceforge.net/DTD/sodipodi-0.dtd"
   xmlns:inkscape="http://www.inkscape.org/namespaces/inkscape"
   width="269.86139"
   height="24.976248"
   id="svg2"
   version="1.1"
   inkscape:version="0.48.4 r9939"
   sodipodi:docname="logo.svg">
  <defs
     id="defs4">
    <inkscape:perspective
       inkscape:persp3d-origin="300 : 400 : 1"
       inkscape:vp_z="700 : 600 : 1"
       inkscape:vp_y="0 : 1000 : 0"
       inkscape:vp_x="-50 : 600 : 1"
       id="perspective70"
       sodipodi:type="inkscape:persp3d" />
  </defs>
  <sodipodi:namedview
     id="base"
     pagecolor="#ffffff"
     bordercolor="#666666"
     borderopacity="1.0"
     inkscape:pageopacity="0.0"
     inkscape:pageshadow="2"
     inkscape:zoom="0.49497475"
     inkscape:cx="682.348"
     inkscape:cy="-381.47603"
     inkscape:document-units="px"
     inkscape:current-layer="layer1"
     showgrid="false"
     fit-margin-top="0"
     fit-margin-left="0"
     fit-margin-right="0"
     fit-margin-bottom="0"
     inkscape:window-width="1920"
     inkscape:window-height="1014"
     inkscape:window-x="1440"
     inkscape:window-y="27"
     inkscape:window-maximized="1"
     inkscape:snap-bbox="true"
     inkscape:bbox-nodes="true"
     inkscape:snap-bbox-midpoints="true"
     inkscape:object-nodes="true"
     inkscape:object-paths="false"
     inkscape:snap-smooth-nodes="true"
     inkscape:snap-nodes="false" />
  <metadata
     id="metadata7">
    <rdf:RDF>
      <cc:Work
         rdf:about="">
        <dc:format>image/svg+xml</dc:format>
        <dc:type
           rdf:resource="http://purl.org/dc/dcmitype/StillImage" />
        <dc:title></dc:title>
      </cc:Work>
    </rdf:RDF>
  </metadata>
  <g
     inkscape:label="Calque 1"
     inkscape:groupmode="layer"
     id="layer1"
     transform="translate(7122.2888,-4916.0607)">
    <g
       id="text3321"
       style="font-size:35.62945557px;font-style:normal;font-variant:normal;font-weight:500;font-stretch:normal;text-align:start;line-height:125%;letter-spacing:0px;word-spacing:0px;writing-mode:lr-tb;text-anchor:start;fill:#000000;fill-opacity:1;stroke:none;font-family:Gill Sans MT Pro;-inkscape-font-specification:Gill Sans MT Pro Medium">
      <path
         inkscape:connector-curvature="0"
         id="path3519"
         style="font-size:35.62945557px;font-style:normal;font-variant:normal;font-weight:500;font-stretch:normal;text-align:start;line-height:125%;writing-mode:lr-tb;text-anchor:start;fill:#204a87;font-family:Gill Sans MT Pro;-inkscape-font-specification:Gill Sans MT Pro Medium"
         d="m -7109.284,4916.0607 c -8.3017,0 -13.0048,6.0927 -13.0048,12.5416 0,6.7696 5.2019,12.399 12.8266,12.399 7.9454,0 13.2898,-5.5225 13.2898,-12.5059 0,-6.5202 -5.0237,-12.4347 -13.1116,-12.4347 m 0.1425,3.2779 c 6.342,0 9.4062,5.095 9.4062,9.1212 0,2.1021 -0.8908,4.7387 -2.4228,6.4133 -1.6746,1.8171 -4.4893,2.8859 -7.0903,2.8859 -5.095,0 -9.4418,-3.6342 -9.4418,-9.1567 0,-4.0618 2.7435,-9.2637 9.5487,-9.2637" />
      <path
         inkscape:connector-curvature="0"
         id="path3521"
         style="font-size:35.62945557px;font-style:normal;font-variant:normal;font-weight:500;font-stretch:normal;text-align:start;line-height:125%;writing-mode:lr-tb;text-anchor:start;fill:#204a87;font-family:Gill Sans MT Pro;-inkscape-font-specification:Gill Sans MT Pro Medium"
         d="m -7092.4218,4924.683 0,15.9977 3.2423,0 0,-11.4371 c 0.962,-1.3895 2.3159,-2.2446 3.7767,-2.2446 1.0689,0 1.7815,0.3206 2.3872,0.9976 0.8551,0.962 0.8551,1.8527 0.8551,3.5629 l 0,9.1212 3.2066,0 0,-9.1212 c 0,-2.9216 -0.3919,-3.848 -0.8907,-4.6318 -1.3183,-2.209 -3.5273,-2.5653 -4.525,-2.5653 -1.4964,0 -3.3848,0.7482 -4.8099,2.3515 l 0,-2.0309 -3.2423,0" />
      <path
         inkscape:connector-curvature="0"
         id="path3523"
         style="font-size:35.62945557px;font-style:normal;font-variant:normal;font-weight:500;font-stretch:normal;text-align:start;line-height:125%;writing-mode:lr-tb;text-anchor:start;fill:#204a87;font-family:Gill Sans MT Pro;-inkscape-font-specification:Gill Sans MT Pro Medium"
         d="m -7071.5073,4916.3814 -3.171,0 0,23.4085 c 1.532,0.7482 4.1686,1.2471 6.1995,1.2471 4.3824,0 8.266,-2.886 8.266,-8.5155 0,-4.4893 -2.6009,-8.1591 -6.8765,-8.1591 -2.3871,0 -3.8836,1.0689 -4.418,1.4608 l 0,-9.4418 m 0,12.4703 c 0.6413,-0.5701 1.8171,-1.5677 3.5985,-1.5677 2.2803,0 4.4894,1.7815 4.4894,5.38 0,3.9905 -2.8504,5.3445 -4.7388,5.3445 -0.5344,0 -2.0665,-0.1069 -3.3491,-0.4989 l 0,-8.6579" />
      <path
         inkscape:connector-curvature="0"
         id="path3525"
         style="font-size:35.62945557px;font-style:normal;font-variant:normal;font-weight:500;font-stretch:normal;text-align:start;line-height:125%;writing-mode:lr-tb;text-anchor:start;fill:#204a87;font-family:Gill Sans MT Pro;-inkscape-font-specification:Gill Sans MT Pro Medium"
         d="m -7049.0608,4924.3624 c -5.3444,0 -8.6223,3.8123 -8.6223,8.3016 0,4.5606 3.3848,8.3373 8.5154,8.3373 3.9549,0 8.5867,-2.5653 8.5867,-8.266 0,-5.0594 -3.7054,-8.3729 -8.4798,-8.3729 m -0.1781,2.8503 c 2.2803,0 5.4157,1.4252 5.4157,5.4513 0,3.2423 -2.1378,5.487 -5.2732,5.487 -2.3515,0 -5.3444,-1.4252 -5.3444,-5.4513 0,-3.5273 2.3515,-5.487 5.2019,-5.487" />
      <path
         inkscape:connector-curvature="0"
         id="path3527"
         style="font-size:35.62945557px;font-style:normal;font-variant:normal;font-weight:500;font-stretch:normal;text-align:start;line-height:125%;writing-mode:lr-tb;text-anchor:start;fill:#204a87;font-family:Gill Sans MT Pro;-inkscape-font-specification:Gill Sans MT Pro Medium"
         d="m -7024.4859,4937.8303 c -0.7126,0.5344 -1.3539,0.8551 -1.6746,0.8551 -0.3919,0 -0.6057,-0.2138 -0.6057,-0.8195 l 0,-8.2304 c 0,-3.6342 -2.5653,-5.2731 -5.8076,-5.2731 -2.3159,0 -4.0618,0.7126 -5.3088,2.1734 l 0,3.456 c 1.5321,-1.8171 3.3136,-2.6366 5.0594,-2.6366 1.924,0 2.886,0.8195 2.886,2.8148 l 0,0.8551 -2.8147,0.9976 c -2.5654,0.9264 -5.4513,1.8884 -5.4513,5.0594 0,2.0665 1.5676,3.9192 3.9192,3.9192 1.4608,0 2.9216,-0.5344 4.3112,-1.6389 0.285,1.1401 1.0332,1.6389 2.4228,1.6389 0.9976,0 1.6033,-0.285 3.0641,-1.247 l 0,-1.924 m -5.4513,-0.3919 c -0.8551,0.8195 -1.7815,1.3183 -2.7791,1.3183 -1.3183,0 -2.2803,-0.9264 -2.2803,-2.2447 0,-1.8883 2.3515,-2.8147 5.0594,-3.7411 l 0,4.6675" />
      <path
         inkscape:connector-curvature="0"
         id="path3529"
         style="font-size:35.62945557px;font-style:normal;font-variant:normal;font-weight:500;font-stretch:normal;text-align:start;line-height:125%;writing-mode:lr-tb;text-anchor:start;fill:#204a87;font-family:Gill Sans MT Pro;-inkscape-font-specification:Gill Sans MT Pro Medium"
         d="m -7021.9301,4924.683 0,15.9977 3.1711,0 0,-8.373 c 0,-3.6342 2.6009,-4.9168 3.7767,-4.9168 1.247,0 2.6722,1.1757 3.0641,1.5677 l 1.6746,-2.7791 c -1.8527,-1.7815 -3.2779,-1.8171 -3.7411,-1.8171 -2.2446,0 -3.7411,2.3871 -4.7743,3.9905 l 0,-3.6699 -3.1711,0" />
      <path
         inkscape:connector-curvature="0"
         id="path3531"
         style="font-size:35.62945557px;font-style:normal;font-variant:normal;font-weight:500;font-stretch:normal;text-align:start;line-height:125%;writing-mode:lr-tb;text-anchor:start;fill:#204a87;font-family:Gill Sans MT Pro;-inkscape-font-specification:Gill Sans MT Pro Medium"
         d="m -6995.0538,4916.3814 -3.2066,0 0,8.6223 c -0.6413,-0.2494 -1.8527,-0.6413 -3.4561,-0.6413 -4.0261,0 -7.8741,2.8503 -7.8741,8.0522 0,3.0998 1.4965,8.2661 7.7673,8.2661 l 6.7695,0 0,-24.2993 m -3.2066,21.6271 -2.4228,0 c -1.6746,0 -2.4941,-0.071 -3.3492,-0.4989 -1.2114,-0.6057 -2.3515,-1.9952 -2.3515,-4.703 0,-4.0262 2.494,-5.7364 5.1663,-5.7364 1.4964,0 2.3515,0.4276 2.9572,0.7482 l 0,10.1901" />
      <path
         inkscape:connector-curvature="0"
         id="path3533"
         style="font-size:35.62945557px;font-style:normal;font-variant:normal;font-weight:500;font-stretch:normal;text-align:start;line-height:125%;writing-mode:lr-tb;text-anchor:start;fill:#babdb6;font-family:Gill Sans MT Pro;-inkscape-font-specification:Gill Sans MT Pro Medium"
         d="m -6970.2161,4916.2389 -2.4585,0 -10.4394,24.4418 3.563,0 3.0641,-7.1616 10.3325,0 3.2423,7.1616 3.563,0 -10.867,-24.4418 m -4.9169,14.1449 3.6342,-8.8005 3.9193,8.8005 -7.5535,0" />
      <path
         inkscape:connector-curvature="0"
         id="path3535"
         style="font-size:35.62945557px;font-style:normal;font-variant:normal;font-weight:500;font-stretch:normal;text-align:start;line-height:125%;writing-mode:lr-tb;text-anchor:start;fill:#babdb6;font-family:Gill Sans MT Pro;-inkscape-font-specification:Gill Sans MT Pro Medium"
         d="m -6947.8063,4925.6807 c -0.7482,-0.392 -2.4584,-1.3183 -4.8456,-1.3183 -3.0641,0 -5.095,1.8171 -5.095,4.1686 0,2.6722 2.3159,4.0974 4.9525,5.5582 1.4964,0.8195 2.4584,1.3539 2.4584,2.4941 0,1.0689 -1.4252,1.6389 -2.4228,1.6389 -0.8551,0 -2.8147,-0.5344 -5.095,-2.1021 l 0,3.4204 c 1.6033,0.7839 3.0998,1.4608 5.3444,1.4608 4.3468,0 5.4869,-3.0285 5.4869,-4.5249 0,-2.1378 -1.7102,-3.7767 -3.9905,-5.0238 -2.3515,-1.3183 -3.456,-1.8883 -3.456,-2.9216 0,-0.6057 0.5344,-1.4252 2.0309,-1.4252 1.4964,0 2.8503,0.6057 4.6318,1.7103 l 0,-3.1354" />
      <path
         inkscape:connector-curvature="0"
         id="path3537"
         style="font-size:35.62945557px;font-style:normal;font-variant:normal;font-weight:500;font-stretch:normal;text-align:start;line-height:125%;writing-mode:lr-tb;text-anchor:start;fill:#babdb6;font-family:Gill Sans MT Pro;-inkscape-font-specification:Gill Sans MT Pro Medium"
         d="m -6934.0973,4925.6807 c -0.7482,-0.392 -2.4585,-1.3183 -4.8456,-1.3183 -3.0642,0 -5.095,1.8171 -5.095,4.1686 0,2.6722 2.3159,4.0974 4.9525,5.5582 1.4964,0.8195 2.4584,1.3539 2.4584,2.4941 0,1.0689 -1.4252,1.6389 -2.4228,1.6389 -0.8551,0 -2.8147,-0.5344 -5.095,-2.1021 l 0,3.4204 c 1.6033,0.7839 3.0997,1.4608 5.3444,1.4608 4.3468,0 5.4869,-3.0285 5.4869,-4.5249 0,-2.1378 -1.7102,-3.7767 -3.9905,-5.0238 -2.3515,-1.3183 -3.456,-1.8883 -3.456,-2.9216 0,-0.6057 0.5344,-1.4252 2.0308,-1.4252 1.4965,0 2.8504,0.6057 4.6319,1.7103 l 0,-3.1354" />
      <path
         inkscape:connector-curvature="0"
         id="path3539"
         style="font-size:35.62945557px;font-style:normal;font-variant:normal;font-weight:500;font-stretch:normal;text-align:start;line-height:125%;writing-mode:lr-tb;text-anchor:start;fill:#babdb6;font-family:Gill Sans MT Pro;-inkscape-font-specification:Gill Sans MT Pro Medium"
         d="m -6928.013,4917.9491 c -1.0689,0 -1.8528,0.962 -1.8528,1.8527 0,0.7839 0.6414,1.8884 1.8528,1.8884 1.0332,0 1.8883,-0.8908 1.8883,-1.8884 0,-0.9976 -0.8194,-1.8527 -1.8883,-1.8527 m 1.6033,6.7339 -3.171,0 0,15.9977 3.171,0 0,-15.9977" />
      <path
         inkscape:connector-curvature="0"
         id="path3541"
         style="font-size:35.62945557px;font-style:normal;font-variant:normal;font-weight:500;font-stretch:normal;text-align:start;line-height:125%;writing-mode:lr-tb;text-anchor:start;fill:#babdb6;font-family:Gill Sans MT Pro;-inkscape-font-specification:Gill Sans MT Pro Medium"
         d="m -6912.5944,4925.6807 c -0.7482,-0.392 -2.4584,-1.3183 -4.8456,-1.3183 -3.0641,0 -5.095,1.8171 -5.095,4.1686 0,2.6722 2.3159,4.0974 4.9525,5.5582 1.4964,0.8195 2.4584,1.3539 2.4584,2.4941 0,1.0689 -1.4252,1.6389 -2.4228,1.6389 -0.8551,0 -2.8147,-0.5344 -5.095,-2.1021 l 0,3.4204 c 1.6033,0.7839 3.0998,1.4608 5.3444,1.4608 4.3468,0 5.487,-3.0285 5.487,-4.5249 0,-2.1378 -1.7103,-3.7767 -3.9905,-5.0238 -2.3516,-1.3183 -3.4561,-1.8883 -3.4561,-2.9216 0,-0.6057 0.5344,-1.4252 2.0309,-1.4252 1.4964,0 2.8503,0.6057 4.6318,1.7103 l 0,-3.1354" />
      <path
         inkscape:connector-curvature="0"
         id="path3543"
         style="font-size:35.62945557px;font-style:normal;font-variant:normal;font-weight:500;font-stretch:normal;text-align:start;line-height:125%;writing-mode:lr-tb;text-anchor:start;fill:#babdb6;font-family:Gill Sans MT Pro;-inkscape-font-specification:Gill Sans MT Pro Medium"
         d="m -6904.4436,4921.3695 -5.9501,5.8432 0,0.3207 2.7791,0 0,7.0903 c 0,1.4608 0,3.171 0.7838,4.3468 1.1046,1.5676 3.0642,2.0308 4.1687,2.0308 0.9263,0 2.6009,-0.2494 4.0974,-1.0689 l 0,-2.9572 c -1.7459,1.0689 -2.9573,1.1401 -3.5986,1.1401 -0.3207,0 -1.1045,-0.036 -1.7102,-0.6769 -0.4988,-0.5701 -0.5345,-0.9264 -0.5701,-2.9216 l 0,-6.9834 5.0594,0 0,-2.8504 -5.0594,0 0,-3.3135" />
      <path
         inkscape:connector-curvature="0"
         id="path3545"
         style="font-size:35.62945557px;font-style:normal;font-variant:normal;font-weight:500;font-stretch:normal;text-align:start;line-height:125%;writing-mode:lr-tb;text-anchor:start;fill:#babdb6;font-family:Gill Sans MT Pro;-inkscape-font-specification:Gill Sans MT Pro Medium"
         d="m -6882.5248,4937.8303 c -0.7126,0.5344 -1.3539,0.8551 -1.6746,0.8551 -0.3919,0 -0.6057,-0.2138 -0.6057,-0.8195 l 0,-8.2304 c 0,-3.6342 -2.5653,-5.2731 -5.8076,-5.2731 -2.3159,0 -4.0617,0.7126 -5.3088,2.1734 l 0,3.456 c 1.5321,-1.8171 3.3136,-2.6366 5.0594,-2.6366 1.924,0 2.886,0.8195 2.886,2.8148 l 0,0.8551 -2.8147,0.9976 c -2.5653,0.9264 -5.4513,1.8884 -5.4513,5.0594 0,2.0665 1.5677,3.9192 3.9192,3.9192 1.4608,0 2.9216,-0.5344 4.3112,-1.6389 0.285,1.1401 1.0332,1.6389 2.4228,1.6389 0.9976,0 1.6033,-0.285 3.0641,-1.247 l 0,-1.924 m -5.4513,-0.3919 c -0.8551,0.8195 -1.7815,1.3183 -2.7791,1.3183 -1.3183,0 -2.2803,-0.9264 -2.2803,-2.2447 0,-1.8883 2.3516,-2.8147 5.0594,-3.7411 l 0,4.6675" />
      <path
         inkscape:connector-curvature="0"
         id="path3547"
         style="font-size:35.62945557px;font-style:normal;font-variant:normal;font-weight:500;font-stretch:normal;text-align:start;line-height:125%;writing-mode:lr-tb;text-anchor:start;fill:#babdb6;font-family:Gill Sans MT Pro;-inkscape-font-specification:Gill Sans MT Pro Medium"
         d="m -6879.8977,4924.683 0,15.9977 3.2423,0 0,-11.4371 c 0.962,-1.3895 2.3159,-2.2446 3.7767,-2.2446 1.0689,0 1.7815,0.3206 2.3872,0.9976 0.8551,0.962 0.8551,1.8527 0.8551,3.5629 l 0,9.1212 3.2067,0 0,-9.1212 c 0,-2.9216 -0.392,-3.848 -0.8908,-4.6318 -1.3183,-2.209 -3.5273,-2.5653 -4.5249,-2.5653 -1.4965,0 -3.3848,0.7482 -4.81,2.3515 l 0,-2.0309 -3.2423,0" />
      <path
         inkscape:connector-curvature="0"
         id="path3549"
         style="font-size:35.62945557px;font-style:normal;font-variant:normal;font-weight:500;font-stretch:normal;text-align:start;line-height:125%;writing-mode:lr-tb;text-anchor:start;fill:#babdb6;font-family:Gill Sans MT Pro;-inkscape-font-specification:Gill Sans MT Pro Medium"
         d="m -6858.3062,4921.3695 -5.9501,5.8432 0,0.3207 2.779,0 0,7.0903 c 0,1.4608 10e-5,3.171 0.7839,4.3468 1.1045,1.5676 3.0641,2.0308 4.1686,2.0308 0.9264,0 2.601,-0.2494 4.0974,-1.0689 l 0,-2.9572 c -1.7458,1.0689 -2.9572,1.1401 -3.5985,1.1401 -0.3207,0 -1.1046,-0.036 -1.7103,-0.6769 -0.4988,-0.5701 -0.5344,-0.9264 -0.57,-2.9216 l 0,-6.9834 5.0594,0 0,-2.8504 -5.0594,0 0,-3.3135" />
    </g>
    <flowRoot
       xml:space="preserve"
       id="flowRoot3425"
       style="font-size:20px;font-style:normal;font-variant:normal;font-weight:normal;font-stretch:normal;line-height:125%;letter-spacing:0px;word-spacing:0px;fill:#000000;fill-opacity:1;stroke:none;font-family:Droid Sans;-inkscape-font-specification:Droid Sans"
       transform="translate(-7122.6092,4022.6075)"><flowRegion
         id="flowRegion3427"><rect
           id="rect3429"
           width="114.28571"
           height="22.857143"
           x="15200"
           y="6132.1074" /></flowRegion><flowPara
         id="flowPara3431"></flowPara></flowRoot>  </g>
</svg>
