<?xml version="1.0" encoding="UTF-8" standalone="no"?>
<!-- Created with Inkscape (http://www.inkscape.org/) -->

<svg
   xmlns:dc="http://purl.org/dc/elements/1.1/"
   xmlns:cc="http://creativecommons.org/ns#"
   xmlns:rdf="http://www.w3.org/1999/02/22-rdf-syntax-ns#"
   xmlns:svg="http://www.w3.org/2000/svg"
   xmlns="http://www.w3.org/2000/svg"
   xmlns:sodipodi="http://sodipodi.sourceforge.net/DTD/sodipodi-0.dtd"
   xmlns:inkscape="http://www.inkscape.org/namespaces/inkscape"
   width="110"
   height="60"
   id="svg2"
   version="1.1"
   inkscape:version="0.48.2 r9819"
   sodipodi:docname="logo04.svg"
   inkscape:export-filename="/home/matt/Documents/Education/5 Année/DSM/Graphisme/logo04.png"
   inkscape:export-xdpi="88.5"
   inkscape:export-ydpi="88.5">
  <defs
     id="defs4" />
  <sodipodi:namedview
     id="base"
     pagecolor="#ffffff"
     bordercolor="#666666"
     borderopacity="1.0"
     inkscape:pageopacity="0.0"
     inkscape:pageshadow="2"
     inkscape:zoom="5.6"
     inkscape:cx="0.97901059"
     inkscape:cy="27.137239"
     inkscape:document-units="px"
     inkscape:current-layer="layer1"
     showgrid="false"
     inkscape:window-width="1920"
     inkscape:window-height="987"
     inkscape:window-x="0"
     inkscape:window-y="33"
     inkscape:window-maximized="1"
     showguides="true"
     inkscape:guide-bbox="true"
     inkscape:snap-bbox="true"
     inkscape:bbox-nodes="true"
     inkscape:object-nodes="true"
     fit-margin-top="0"
     fit-margin-left="0"
     fit-margin-right="0"
     fit-margin-bottom="0">
    <sodipodi:guide
       orientation="1,0"
       position="105.15785,17.851573"
       id="guide3132" />
    <sodipodi:guide
       orientation="1,0"
       position="23.599048,57.875273"
       id="guide3134" />
    <sodipodi:guide
       orientation="0,1"
       position="4.8421443,9.62473"
       id="guide3136" />
    <sodipodi:guide
       orientation="0,1"
       position="18.977783,55.37527"
       id="guide3142" />
    <sodipodi:guide
       orientation="1,0"
       position="4.84214,12.124743"
       id="guide3144" />
    <sodipodi:guide
       orientation="1,0"
       position="43.888328,52.148443"
       id="guide3162" />
    <sodipodi:guide
       orientation="1,0"
       position="48.439098,52.148443"
       id="guide3164" />
    <sodipodi:guide
       orientation="1,0"
       position="115,5.0000129"
       id="guide3186" />
  </sodipodi:namedview>
  <metadata
     id="metadata7">
    <rdf:RDF>
      <cc:Work
         rdf:about="">
        <dc:format>image/svg+xml</dc:format>
        <dc:type
           rdf:resource="http://purl.org/dc/dcmitype/StillImage" />
        <dc:title></dc:title>
      </cc:Work>
    </rdf:RDF>
  </metadata>
  <g
     inkscape:label="Calque 1"
     inkscape:groupmode="layer"
     id="layer1"
     transform="translate(-86.636841,-200.32835)">
    <rect
       style="fill:#d9d9d9;fill-opacity:1;stroke:none"
       id="rect3140"
       width="110"
       height="55"
       x="86.636841"
       y="200.32835" />
    <g
       id="g3146"
       transform="translate(4.1350098e-6,2.4999939)">
      <g
         style="font-size:40px;font-style:normal;font-weight:normal;line-height:125%;letter-spacing:0px;word-spacing:0px;fill:#000000;fill-opacity:1;stroke:none;font-family:Sans"
         id="text2985">
        <path
           d="m 130.52516,208.17992 4.55078,0 0,34.29687 -4.55078,0 0,-2.24609 c -2.12241,1.49739 -4.37501,2.24609 -6.75781,2.24609 l -0.23438,0 c -3.6849,0 -6.79037,-1.63411 -9.3164,-4.90234 -1.32813,-2.05729 -1.99219,-4.23827 -1.99219,-6.54297 0,-3.74999 1.63411,-6.88149 4.90234,-9.39453 2.03125,-1.34113 4.24479,-2.0117 6.64063,-2.01172 2.39582,2e-5 4.62889,0.74872 6.69922,2.24609 l 0.0586,0 0,-13.6914 m -13.75,22.89062 c 0,2.42189 1.13281,4.38803 3.39844,5.89844 1.0677,0.63802 2.26561,0.95703 3.59375,0.95703 2.26561,0 4.15363,-1.04817 5.66406,-3.14453 0.72915,-1.18489 1.09373,-2.36978 1.09375,-3.55469 l 0,-0.35156 c -2e-5,-2.1354 -1.00262,-3.96483 -3.00781,-5.48828 -1.19793,-0.80728 -2.51304,-1.21092 -3.94531,-1.21094 -2.22658,2e-5 -4.10808,1.03517 -5.64453,3.10547 -0.76824,1.21095 -1.15235,2.47397 -1.15235,3.78906"
           style="font-variant:normal;font-stretch:normal;font-family:Star Avenue;-inkscape-font-specification:Star Avenue"
           id="path3153"
           inkscape:connector-curvature="0" />
        <path
           d="m 144.58766,219.62523 13.20313,0 0,4.55078 -13.20313,0 c -1.23698,2e-5 -2.00521,0.20184 -2.30469,0.60547 -0.42969,0.612 -0.64453,1.21095 -0.64453,1.79687 0,1.01564 0.46875,1.69924 1.40625,2.05079 l 0.83985,0.15625 6.11328,0 c 3.6979,1e-5 6.11326,1.41277 7.24609,4.23828 0.29946,0.89844 0.4492,1.78386 0.44922,2.65625 -2e-5,2.8125 -1.25002,4.84375 -3.75,6.09375 -1.01564,0.46875 -1.96616,0.70312 -2.85156,0.70312 l -13.90625,0 0,-4.55078 13.65234,0 c 1.05467,0 1.77082,-0.44921 2.14844,-1.34766 l 0.15625,-0.95703 c -2e-5,-1.53645 -0.93101,-2.30468 -2.79297,-2.30468 l -6.60156,0 c -1.73178,0 -3.33334,-0.66406 -4.80469,-1.99219 -1.23698,-1.30207 -1.85547,-2.90363 -1.85547,-4.80469 0,-1.71873 0.59896,-3.31378 1.79688,-4.78516 1.18489,-1.40622 3.08593,-2.10935 5.70312,-2.10937"
           style="font-variant:normal;font-stretch:normal;font-family:Star Avenue;-inkscape-font-specification:Star Avenue"
           id="path3155"
           inkscape:connector-curvature="0" />
        <path
           d="m 159.80251,219.62523 4.55078,0 0,1.19141 0.0586,0 c 1.41926,-0.79425 2.92968,-1.19139 4.53125,-1.19141 2.64322,2e-5 4.92837,1.03518 6.85547,3.10547 1.87498,-2.07029 4.19269,-3.10545 6.95312,-3.10547 2.513,2e-5 4.73305,0.98309 6.66016,2.94922 1.58851,1.79689 2.38278,3.89975 2.38281,6.30859 l 0,13.59375 -4.55078,0 0,-13.59375 c -3e-5,-2.10936 -1.06122,-3.61326 -3.18359,-4.51172 -0.58596,-0.13019 -1.05471,-0.19529 -1.40625,-0.19531 -1.862,2e-5 -3.28127,0.95054 -4.25781,2.85156 -0.2344,0.612 -0.35159,1.38023 -0.35157,2.30469 l 0,13.14453 -4.55078,0 0,-13.84765 c -1e-5,-1.66666 -0.87892,-3.02082 -2.63672,-4.0625 -0.72917,-0.2604 -1.39975,-0.39061 -2.01172,-0.39063 -1.67969,2e-5 -3.04688,0.88543 -4.10156,2.65625 -0.26042,0.72918 -0.39063,1.34116 -0.39062,1.83594 l 0,13.80859 -4.55078,0 0,-22.85156"
           style="font-variant:normal;font-stretch:normal;font-family:Star Avenue;-inkscape-font-specification:Star Avenue"
           id="path3157"
           inkscape:connector-curvature="0" />
      </g>
      <g
         style="font-size:55.67266846px;font-style:normal;font-variant:normal;font-weight:normal;font-stretch:normal;line-height:125%;letter-spacing:0px;word-spacing:0px;fill:#000000;fill-opacity:1;stroke:none;font-family:Media Gothic;-inkscape-font-specification:Media Gothic"
         id="text2989">
        <path
           d="m 105.61462,202.45309 4.62127,0 -14.135643,45.75054 -4.621266,0 14.135639,-45.75054"
           id="path3160"
           inkscape:connector-curvature="0" />
      </g>
    </g>
    <rect
       style="fill:#234d8c;fill-opacity:1;stroke:none"
       id="rect3166"
       width="5"
       height="110"
       x="255.32835"
       y="-196.63684"
       transform="matrix(0,1,-1,0,0,0)" />
  </g>
</svg>
